<svg width="254" height="56" viewBox="0 0 254 56" fill="none" xmlns="http://www.w3.org/2000/svg">
<path d="M87 45.9002C84.7 45.9002 82.8 45.1002 81.3 43.6002C79.8 42.1002 79 40.1002 79 37.8002C79 35.5002 79.8 33.6002 81.3 32.0002C82.8 30.5002 84.7 29.7002 87 29.7002C89.3 29.7002 91.2 30.5002 92.7 32.2002L91.3 33.5002C90.2 32.2002 88.8 31.5002 87 31.5002C85.3 31.5002 83.9 32.1002 82.7 33.2002C81.5 34.3002 81 35.8002 81 37.7002C81 39.5002 81.6 41.0002 82.7 42.2002C83.9 43.3002 85.3 43.9002 87 43.9002C88.9 43.9002 90.4 43.1002 91.8 41.7002L93.2 43.1002C92.5 43.9002 91.6 44.6002 90.5 45.1002C89.4 45.6002 88.3 45.9002 87 45.9002Z" fill="#606469"/>
<path d="M96.8999 30.1001V35.0001L96.7999 36.5001H96.8999C97.1999 36.0001 97.5999 35.6001 98.2999 35.2001C98.8999 34.8001 99.5999 34.7001 100.3 34.7001C101.6 34.7001 102.6 35.1001 103.3 35.9001C104 36.7001 104.3 37.8001 104.3 39.1001V45.6001H102.3V39.4001C102.3 37.4001 101.4 36.5001 99.6999 36.5001C98.8999 36.5001 98.1999 36.8001 97.6999 37.5001C97.1999 38.2001 96.8999 38.9001 96.8999 39.8001V45.6001H94.8999V30.2001L96.8999 30.1001Z" fill="#606469"/>
<path d="M108.6 45.5001H106.6V34.9001H108.5V36.6001H108.6C108.8 36.0001 109.2 35.5001 109.8 35.2001C110.4 34.8001 111 34.6001 111.6 34.6001C112.2 34.6001 112.7 34.7001 113.1 34.9001L112.3 36.8001C112 36.7001 111.7 36.6001 111.2 36.6001C110.5 36.6001 109.8 36.9001 109.3 37.5001C108.7 38.1001 108.5 38.8001 108.5 39.7001V45.5001H108.6Z" fill="#606469"/>
<path d="M114.7 36.2001C115.7 35.1001 117 34.6001 118.6 34.6001C120.2 34.6001 121.5 35.1001 122.5 36.2001C123.5 37.3001 124 38.6001 124 40.2001C124 41.8001 123.5 43.2001 122.5 44.2001C121.5 45.3001 120.2 45.8001 118.6 45.8001C117 45.8001 115.7 45.3001 114.7 44.2001C113.7 43.1001 113.2 41.8001 113.2 40.2001C113.2 38.6001 113.7 37.3001 114.7 36.2001ZM116.2 43.0001C116.9 43.7001 117.7 44.0001 118.6 44.0001C119.5 44.0001 120.3 43.6001 121 43.0001C121.7 42.3001 122 41.4001 122 40.2001C122 39.0001 121.7 38.1001 121 37.4001C120.3 36.7001 119.5 36.4001 118.6 36.4001C117.7 36.4001 116.9 36.8001 116.2 37.4001C115.5 38.1001 115.2 39.0001 115.2 40.2001C115.2 41.4001 115.5 42.3001 116.2 43.0001Z" fill="#606469"/>
<path d="M125.7 45.5001V34.9001H127.6V36.4001H127.7C128 35.9001 128.5 35.5001 129.1 35.1001C129.7 34.7001 130.3 34.6001 131 34.6001C132.6 34.6001 133.8 35.3001 134.3 36.6001C135.2 35.3001 136.4 34.6001 138 34.6001C139.3 34.6001 140.2 35.0001 140.8 35.8001C141.4 36.6001 141.8 37.7001 141.8 39.0001V45.5001H139.8V39.3001C139.8 38.2001 139.6 37.5001 139.2 37.0001C138.8 36.6001 138.2 36.3001 137.4 36.3001C136.6 36.3001 136 36.6001 135.5 37.3001C135 38.0001 134.7 38.7001 134.7 39.6001V45.4001H132.7V39.2001C132.7 38.1001 132.5 37.4001 132.1 36.9001C131.7 36.5001 131.1 36.2001 130.3 36.2001C129.5 36.2001 128.9 36.5001 128.4 37.2001C127.9 37.9001 127.6 38.6001 127.6 39.5001V45.3001L125.7 45.5001Z" fill="#606469"/>
<path d="M148.8 45.9001C147.2 45.9001 145.9 45.4001 144.9 44.3001C143.9 43.2001 143.4 41.9001 143.4 40.3001C143.4 38.8001 143.9 37.4001 144.9 36.3001C145.9 35.2001 147.1 34.6001 148.6 34.6001C150.2 34.6001 151.4 35.1001 152.4 36.1001C153.3 37.1001 153.8 38.5001 153.8 40.2001V40.6001H145.4C145.5 41.7001 145.8 42.5001 146.5 43.1001C147.2 43.7001 147.9 44.0001 148.8 44.0001C150.2 44.0001 151.2 43.4001 151.7 42.2001L153.5 42.9001C153.2 43.7001 152.6 44.4001 151.8 45.0001C151 45.6001 150 45.9001 148.8 45.9001ZM151.7 39.0001C151.7 38.4001 151.4 37.8001 150.9 37.3001C150.4 36.7001 149.6 36.5001 148.6 36.5001C147.9 36.5001 147.2 36.7001 146.7 37.2001C146.2 37.7001 145.8 38.3001 145.6 39.1001H151.7V39.0001Z" fill="#606469"/>
<path d="M177.8 30.1001L173.7 45.5001H171.7L168.4 35.3001H168.3L165 45.5001H163L158.7 30.1001H160.8L164.1 42.3001H164.2L167.5 32.2001H169.4L172.7 42.3001H172.8L175.9 30.1001H177.8Z" fill="#606469"/>
<path d="M183 45.9001C181.4 45.9001 180.1 45.4001 179.1 44.3001C178.1 43.2001 177.6 41.9001 177.6 40.3001C177.6 38.8001 178.1 37.4001 179.1 36.3001C180.1 35.2001 181.3 34.6001 182.8 34.6001C184.4 34.6001 185.6 35.1001 186.6 36.1001C187.5 37.1001 188 38.5001 188 40.2001V40.6001H179.6C179.7 41.7001 180 42.5001 180.7 43.1001C181.4 43.7001 182.1 44.0001 183 44.0001C184.4 44.0001 185.4 43.4001 185.9 42.2001L187.7 42.9001C187.4 43.7001 186.8 44.4001 186 45.0001C185.1 45.6001 184.1 45.9001 183 45.9001ZM185.8 39.0001C185.8 38.4001 185.5 37.8001 185 37.3001C184.5 36.7001 183.7 36.5001 182.7 36.5001C182 36.5001 181.3 36.7001 180.8 37.2001C180.3 37.7001 179.9 38.3001 179.7 39.1001H185.8V39.0001Z" fill="#606469"/>
<path d="M195.3 45.9002C194.5 45.9002 193.8 45.7002 193.1 45.4002C192.5 45.1002 192 44.6002 191.7 44.1002H191.6V45.6002H189.7V30.2002H191.7V35.1002L191.6 36.6002H191.7C192 36.1002 192.5 35.6002 193.1 35.3002C193.7 35.0002 194.5 34.8002 195.3 34.8002C196.7 34.8002 197.8 35.3002 198.8 36.4002C199.8 37.5002 200.3 38.8002 200.3 40.4002C200.3 42.0002 199.8 43.3002 198.8 44.4002C197.9 45.3002 196.7 45.9002 195.3 45.9002ZM195 44.1002C195.9 44.1002 196.7 43.7002 197.4 43.1002C198.1 42.4002 198.4 41.5002 198.4 40.3002C198.4 39.1002 198.1 38.2002 197.4 37.5002C196.7 36.8002 195.9 36.5002 195 36.5002C194.1 36.5002 193.3 36.8002 192.6 37.5002C191.9 38.2002 191.6 39.1002 191.6 40.3002C191.6 41.5002 191.9 42.4002 192.6 43.1002C193.3 43.7002 194.1 44.1002 195 44.1002Z" fill="#606469"/>
<path d="M211 45.9003C209.9 45.9003 208.8 45.5003 207.7 44.8003C206.6 44.1003 205.9 43.0003 205.6 41.7003L207.4 41.0003C207.6 41.8003 208.1 42.6003 208.7 43.1003C209.3 43.6003 210.1 44.0003 211 44.0003C211.9 44.0003 212.6 43.8003 213.2 43.3003C213.8 42.8003 214.1 42.2003 214.1 41.5003C214.1 40.6003 213.8 40.0003 213.2 39.5003C212.6 39.0003 211.6 38.6003 210.3 38.2003C208.9 37.8003 207.9 37.2003 207.2 36.5003C206.5 35.8003 206.1 34.9003 206.1 33.9003C206.1 32.8003 206.5 31.8003 207.4 31.0003C208.3 30.2003 209.4 29.8003 210.8 29.8003C212.1 29.8003 213.2 30.1003 214 30.8003C214.8 31.5003 215.3 32.2003 215.6 32.9003L213.8 33.7003C213.7 33.2003 213.4 32.8003 212.8 32.3003C212.3 31.9003 211.6 31.7003 210.8 31.7003C210 31.7003 209.4 31.9003 208.9 32.3003C208.4 32.7003 208.1 33.3003 208.1 33.9003C208.1 34.5003 208.3 35.0003 208.8 35.4003C209.3 35.8003 210 36.2003 211 36.5003C211.8 36.7003 212.4 37.0003 212.9 37.2003C213.4 37.4003 213.9 37.7003 214.4 38.1003C214.9 38.5003 215.3 39.0003 215.6 39.5003C215.9 40.1003 216 40.7003 216 41.5003C216 42.3003 215.8 42.9003 215.5 43.5003C215.2 44.1003 214.8 44.6003 214.3 44.9003C213.8 45.2003 213.2 45.5003 212.6 45.7003C212.2 45.8003 211.6 45.9003 211 45.9003Z" fill="#606469"/>
<path d="M222.3 45.7003C221.2 45.7003 220.4 45.4003 219.8 44.8003C219.2 44.2003 218.9 43.4003 218.9 42.3003V36.8003H217V35.0003H218.9V31.8003H220.9V35.0003H223.5V36.8003H220.9V42.2003C220.9 43.3003 221.4 43.9003 222.3 43.9003C222.7 43.9003 223 43.8003 223.2 43.7003L223.9 45.4003C223.4 45.6003 222.9 45.7003 222.3 45.7003Z" fill="#606469"/>
<path d="M226.1 36.2001C227.1 35.1001 228.4 34.6001 230 34.6001C231.6 34.6001 232.9 35.1001 233.9 36.2001C234.9 37.3001 235.4 38.6001 235.4 40.2001C235.4 41.8001 234.9 43.2001 233.9 44.2001C232.9 45.3001 231.6 45.8001 230 45.8001C228.4 45.8001 227.1 45.3001 226.1 44.2001C225.1 43.1001 224.6 41.8001 224.6 40.2001C224.6 38.6001 225.1 37.3001 226.1 36.2001ZM227.6 43.0001C228.3 43.7001 229.1 44.0001 230 44.0001C230.9 44.0001 231.7 43.6001 232.4 43.0001C233.1 42.3001 233.4 41.4001 233.4 40.2001C233.4 39.0001 233.1 38.1001 232.4 37.4001C231.7 36.7001 230.9 36.4001 230 36.4001C229.1 36.4001 228.3 36.8001 227.6 37.4001C226.9 38.1001 226.6 39.0001 226.6 40.2001C226.6 41.4001 226.9 42.3001 227.6 43.0001Z" fill="#606469"/>
<path d="M239.1 45.5001H237.1V34.9001H239V36.6001H239.1C239.3 36.0001 239.7 35.5001 240.3 35.2001C240.9 34.8001 241.5 34.6001 242.1 34.6001C242.7 34.6001 243.2 34.7001 243.6 34.9001L242.8 36.8001C242.5 36.7001 242.2 36.6001 241.7 36.6001C241 36.6001 240.3 36.9001 239.8 37.5001C239.2 38.1001 239 38.8001 239 39.7001V45.5001H239.1Z" fill="#606469"/>
<path d="M249 45.9001C247.4 45.9001 246.1 45.4001 245.1 44.3001C244.1 43.2001 243.6 41.9001 243.6 40.3001C243.6 38.8001 244.1 37.4001 245.1 36.3001C246.1 35.2001 247.3 34.6001 248.8 34.6001C250.4 34.6001 251.6 35.1001 252.6 36.1001C253.5 37.1001 254 38.5001 254 40.2001V40.6001H245.6C245.7 41.7001 246 42.5001 246.7 43.1001C247.4 43.7001 248.1 44.0001 249 44.0001C250.4 44.0001 251.4 43.4001 251.9 42.2001L253.7 42.9001C253.4 43.7001 252.8 44.4001 252 45.0001C251.2 45.6001 250.2 45.9001 249 45.9001ZM251.9 39.0001C251.9 38.4001 251.6 37.8001 251.1 37.3001C250.6 36.7001 249.8 36.5001 248.8 36.5001C248.1 36.5001 247.4 36.7001 246.9 37.2001C246.4 37.7001 246 38.3001 245.8 39.1001H251.9V39.0001Z" fill="#606469"/>
<path d="M80.1001 21.5003L84.5001 9.80029H86.2001L90.6001 21.5003H89.0001L87.9001 18.3003H83.0001L81.9001 21.5003H80.1001ZM83.5001 17.0003H87.4001L85.5001 11.7003H85.4001L83.5001 17.0003Z" fill="#606469"/>
<path d="M93.3001 21.5L90.1001 13.5H91.7001L94.0001 19.7L96.4001 13.5H98.0001L94.7001 21.5H93.3001Z" fill="#606469"/>
<path d="M101.4 21.7999C100.6 21.7999 99.7999 21.5999 99.2999 21.0999C98.6999 20.5999 98.3999 19.9999 98.3999 19.1999C98.3999 18.2999 98.6999 17.6999 99.3999 17.0999C100.1 16.5999 100.9 16.3999 101.9 16.3999C102.8 16.3999 103.5 16.5999 104.1 16.8999V16.6999C104.1 16.0999 103.9 15.5999 103.5 15.2999C103.1 14.8999 102.6 14.7999 102 14.7999C101.6 14.7999 101.2 14.8999 100.8 15.0999C100.4 15.2999 100.2 15.5999 100.1 15.8999L98.6999 15.2999C98.8999 14.7999 99.2999 14.3999 99.7999 13.9999C100.3 13.5999 101.1 13.3999 102 13.3999C103 13.3999 103.9 13.6999 104.5 14.2999C105.2 14.8999 105.5 15.6999 105.5 16.7999V21.5999H104.1V20.4999H104C103.5 21.2999 102.6 21.7999 101.4 21.7999ZM101.7 20.3999C102.3 20.3999 102.9 20.1999 103.4 19.6999C103.9 19.1999 104.2 18.6999 104.2 18.0999C103.8 17.6999 103.1 17.5999 102.3 17.5999C101.6 17.5999 101 17.7999 100.6 18.0999C100.2 18.3999 99.9999 18.7999 99.9999 19.1999C99.9999 19.5999 100.2 19.8999 100.5 20.0999C100.9 20.2999 101.3 20.3999 101.7 20.3999Z" fill="#606469"/>
<path d="M108.9 11.5001C108.7 11.7001 108.4 11.8001 108.1 11.8001C107.8 11.8001 107.6 11.7001 107.3 11.5001C107.1 11.3001 107 11.0001 107 10.7001C107 10.4001 107.1 10.2001 107.3 9.90009C107.5 9.70009 107.8 9.6001 108.1 9.6001C108.4 9.6001 108.6 9.70009 108.9 9.90009C109.1 10.1001 109.2 10.4001 109.2 10.7001C109.2 11.0001 109.1 11.3001 108.9 11.5001ZM108.9 21.5001H107.4V13.5001H108.9V21.5001Z" fill="#606469"/>
<path d="M112.4 21.4999H110.9V9.8999H112.4V21.4999Z" fill="#606469"/>
<path d="M116.6 21.7999C115.8 21.7999 115 21.5999 114.5 21.0999C113.9 20.5999 113.6 19.9999 113.6 19.1999C113.6 18.2999 113.9 17.6999 114.6 17.0999C115.3 16.5999 116.1 16.3999 117.1 16.3999C118 16.3999 118.7 16.5999 119.3 16.8999V16.6999C119.3 16.0999 119.1 15.5999 118.7 15.2999C118.3 14.8999 117.8 14.7999 117.2 14.7999C116.8 14.7999 116.4 14.8999 116 15.0999C115.6 15.2999 115.4 15.5999 115.3 15.8999L113.9 15.2999C114.1 14.7999 114.5 14.3999 115 13.9999C115.5 13.5999 116.3 13.3999 117.2 13.3999C118.2 13.3999 119.1 13.6999 119.7 14.2999C120.4 14.8999 120.7 15.6999 120.7 16.7999V21.5999H119.3V20.4999H119.2C118.7 21.2999 117.8 21.7999 116.6 21.7999ZM116.9 20.3999C117.5 20.3999 118.1 20.1999 118.6 19.6999C119.1 19.1999 119.4 18.6999 119.4 18.0999C119 17.6999 118.3 17.5999 117.5 17.5999C116.8 17.5999 116.2 17.7999 115.8 18.0999C115.4 18.3999 115.2 18.7999 115.2 19.1999C115.2 19.5999 115.4 19.8999 115.7 20.0999C116.1 20.2999 116.5 20.3999 116.9 20.3999Z" fill="#606469"/>
<path d="M126.7 21.7999C126.1 21.7999 125.5 21.6999 125.1 21.3999C124.6 21.0999 124.3 20.7999 124 20.3999H123.9V21.4999H122.5V9.8999H124V13.5999L123.9 14.6999H124C124.2 14.2999 124.6 13.9999 125.1 13.6999C125.6 13.3999 126.1 13.2999 126.7 13.2999C127.7 13.2999 128.6 13.6999 129.4 14.4999C130.2 15.2999 130.5 16.2999 130.5 17.4999C130.5 18.6999 130.1 19.6999 129.4 20.4999C128.6 21.3999 127.7 21.7999 126.7 21.7999ZM126.5 20.3999C127.2 20.3999 127.8 20.0999 128.3 19.5999C128.8 19.0999 129.1 18.3999 129.1 17.4999C129.1 16.5999 128.9 15.8999 128.3 15.3999C127.8 14.8999 127.2 14.5999 126.5 14.5999C125.8 14.5999 125.2 14.8999 124.7 15.3999C124.2 15.8999 124 16.5999 124 17.4999C124 18.3999 124.2 19.0999 124.7 19.5999C125.1 20.1999 125.7 20.3999 126.5 20.3999Z" fill="#606469"/>
<path d="M133.3 21.4999H131.8V9.8999H133.3V21.4999Z" fill="#606469"/>
<path d="M138.7 21.8002C137.5 21.8002 136.5 21.4002 135.8 20.6002C135 19.8002 134.7 18.8002 134.7 17.5002C134.7 16.3002 135.1 15.3002 135.8 14.5002C136.5 13.7002 137.5 13.2002 138.6 13.2002C139.8 13.2002 140.7 13.6002 141.5 14.4002C142.2 15.2002 142.6 16.2002 142.6 17.5002V17.8002H136.3C136.3 18.6002 136.6 19.2002 137.1 19.7002C137.6 20.2002 138.2 20.4002 138.8 20.4002C139.9 20.4002 140.6 19.9002 141 19.0002L142.3 19.6002C142 20.2002 141.6 20.7002 141 21.2002C140.3 21.6002 139.5 21.8002 138.7 21.8002ZM140.8 16.6002C140.8 16.1002 140.6 15.7002 140.2 15.3002C139.8 14.9002 139.2 14.7002 138.5 14.7002C137.9 14.7002 137.5 14.9002 137.1 15.2002C136.7 15.6002 136.4 16.0002 136.3 16.6002H140.8Z" fill="#606469"/>
<path d="M149 11.5001C148.8 11.7001 148.5 11.8001 148.2 11.8001C147.9 11.8001 147.7 11.7001 147.4 11.5001C147.2 11.3001 147.1 11.0001 147.1 10.7001C147.1 10.4001 147.2 10.2001 147.4 9.90009C147.6 9.70009 147.9 9.6001 148.2 9.6001C148.5 9.6001 148.7 9.70009 149 9.90009C149.2 10.1001 149.3 10.4001 149.3 10.7001C149.3 11.0001 149.2 11.3001 149 11.5001ZM149 21.5001H147.5V13.5001H149V21.5001Z" fill="#606469"/>
<path d="M152.4 13.5002V14.6002H152.5C152.7 14.2002 153.1 13.9002 153.5 13.6002C154 13.3002 154.5 13.2002 155 13.2002C156 13.2002 156.7 13.5002 157.3 14.1002C157.8 14.7002 158.1 15.5002 158.1 16.6002V21.5002H156.6V16.8002C156.6 15.3002 155.9 14.6002 154.6 14.6002C154 14.6002 153.5 14.8002 153.1 15.3002C152.7 15.8002 152.5 16.4002 152.5 17.0002V21.4002H151V13.4002L152.4 13.5002Z" fill="#606469"/>
<path d="M166.9 21.7C166.1 21.7 165.4 21.5 165 21C164.6 20.6 164.3 19.9 164.3 19.1V14.9H162.9V13.5H164.3V11H165.8V13.5H167.8V14.9H165.8V19C165.8 19.9 166.2 20.3 166.9 20.3C167.2 20.3 167.4 20.3 167.6 20.2L168.1 21.5C167.8 21.6 167.4 21.7 166.9 21.7Z" fill="#606469"/>
<path d="M170.8 9.8999V13.5999L170.7 14.6999H170.8C171 14.2999 171.4 13.9999 171.8 13.6999C172.3 13.3999 172.8 13.2999 173.3 13.2999C174.3 13.2999 175 13.5999 175.6 14.1999C176.1 14.7999 176.4 15.5999 176.4 16.6999V21.5999H174.9V16.8999C174.9 15.3999 174.2 14.6999 172.9 14.6999C172.3 14.6999 171.8 14.8999 171.4 15.3999C171 15.8999 170.8 16.4999 170.8 17.0999V21.4999H169.3V9.8999H170.8Z" fill="#606469"/>
<path d="M181.8 21.8002C180.6 21.8002 179.6 21.4002 178.9 20.6002C178.1 19.8002 177.8 18.8002 177.8 17.5002C177.8 16.3002 178.2 15.3002 178.9 14.5002C179.6 13.7002 180.6 13.2002 181.7 13.2002C182.9 13.2002 183.8 13.6002 184.6 14.4002C185.3 15.2002 185.7 16.2002 185.7 17.5002V17.8002H179.4C179.4 18.6002 179.7 19.2002 180.2 19.7002C180.7 20.2002 181.3 20.4002 181.9 20.4002C183 20.4002 183.7 19.9002 184.1 19.0002L185.4 19.6002C185.1 20.2002 184.7 20.7002 184.1 21.2002C183.4 21.6002 182.6 21.8002 181.8 21.8002ZM183.9 16.6002C183.9 16.1002 183.7 15.7002 183.3 15.3002C182.9 14.9002 182.3 14.7002 181.6 14.7002C181 14.7002 180.6 14.9002 180.2 15.2002C179.8 15.6002 179.5 16.0002 179.4 16.6002H183.9Z" fill="#606469"/>
<mask id="mask0_64_217" style="mask-type:luminance" maskUnits="userSpaceOnUse" x="0" y="0" width="65" height="56">
<path d="M0 0V51.1C0 53.5 2 55.5 4.4 55.5H59.9C62.3 55.5 64.3 53.5 64.3 51.1V0H0ZM39.4 11.7H24.8C23.2 11.7 21.9 10.4 21.9 8.8C21.9 7.2 23.2 5.9 24.8 5.9H39.4C41 5.9 42.3 7.2 42.3 8.8C42.3 10.4 41 11.7 39.4 11.7Z" fill="white"/>
</mask>
<g mask="url(#mask0_64_217)">
<path d="M0 0H64.3V55.5H0V0Z" fill="#EEEDEE"/>
</g>
<mask id="mask1_64_217" style="mask-type:luminance" maskUnits="userSpaceOnUse" x="0" y="0" width="65" height="56">
<path d="M0 0V51.1C0 53.5 2 55.5 4.4 55.5H59.9C62.3 55.5 64.3 53.5 64.3 51.1V0H0ZM39.4 11.7H24.8C23.2 11.7 21.9 10.4 21.9 8.8C21.9 7.2 23.2 5.9 24.8 5.9H39.4C41 5.9 42.3 7.2 42.3 8.8C42.3 10.4 41 11.7 39.4 11.7Z" fill="white"/>
</mask>
<g mask="url(#mask1_64_217)">
<path d="M39.3999 5.8999H24.7999C23.1999 5.8999 21.8999 7.1999 21.8999 8.7999C21.8999 10.3999 23.1999 11.6999 24.7999 11.6999H39.3999C40.9999 11.6999 42.2999 10.3999 42.2999 8.7999C42.2999 7.1999 40.9999 5.8999 39.3999 5.8999Z" fill="white"/>
</g>
<mask id="mask2_64_217" style="mask-type:luminance" maskUnits="userSpaceOnUse" x="0" y="0" width="65" height="56">
<path d="M0 0V51.1C0 53.5 2 55.5 4.4 55.5H59.9C62.3 55.5 64.3 53.5 64.3 51.1V0H0ZM39.4 11.7H24.8C23.2 11.7 21.9 10.4 21.9 8.8C21.9 7.2 23.2 5.9 24.8 5.9H39.4C41 5.9 42.3 7.2 42.3 8.8C42.3 10.4 41 11.7 39.4 11.7Z" fill="white"/>
</mask>
<g mask="url(#mask2_64_217)">
<mask id="mask3_64_217" style="mask-type:luminance" maskUnits="userSpaceOnUse" x="4" y="23" width="56" height="56">
<mask id="mask4_64_217" style="mask-type:luminance" maskUnits="userSpaceOnUse" x="4" y="23" width="56" height="56">
<mask id="mask5_64_217" style="mask-type:luminance" maskUnits="userSpaceOnUse" x="4" y="23" width="56" height="56">
<mask id="mask6_64_217" style="mask-type:luminance" maskUnits="userSpaceOnUse" x="4" y="23" width="56" height="56">
<path d="M59.8834 53.161C60.9718 37.8461 49.439 24.5486 34.1241 23.4603C18.8092 22.3719 5.5117 33.9048 4.42332 49.2196C3.33494 64.5345 14.8678 77.832 30.1827 78.9204C45.4976 80.0088 58.7951 68.4759 59.8834 53.161Z" fill="white"/>
</mask>
<g mask="url(#mask6_64_217)">
<path d="M59.8834 53.161C60.9718 37.8461 49.439 24.5486 34.1241 23.4603C18.8092 22.3719 5.5117 33.9048 4.42332 49.2196C3.33494 64.5345 14.8678 77.832 30.1827 78.9204C45.4976 80.0088 58.7951 68.4759 59.8834 53.161Z" fill="white"/>
</g>
</mask>
<g mask="url(#mask5_64_217)">
<path d="M59.8834 53.161C60.9718 37.8461 49.439 24.5486 34.1241 23.4603C18.8092 22.3719 5.5117 33.9048 4.42332 49.2196C3.33494 64.5345 14.8678 77.832 30.1827 78.9204C45.4976 80.0088 58.7951 68.4759 59.8834 53.161Z" fill="white"/>
</g>
</mask>
<g mask="url(#mask4_64_217)">
<path d="M59.8834 53.161C60.9718 37.8461 49.439 24.5486 34.1241 23.4603C18.8092 22.3719 5.5117 33.9048 4.42332 49.2196C3.33494 64.5345 14.8678 77.832 30.1827 78.9204C45.4976 80.0088 58.7951 68.4759 59.8834 53.161Z" fill="white"/>
</g>
</mask>
<g mask="url(#mask3_64_217)">
<path d="M8.80029 23.3999V57.4999H21.2003L32.1003 38.5999H59.9003V23.4999H8.80029V23.3999ZM8.80029 23.3999V57.4999H21.2003L32.1003 38.5999H59.9003V23.4999H8.80029V23.3999Z" fill="#DC4637"/>
</g>
<mask id="mask7_64_217" style="mask-type:luminance" maskUnits="userSpaceOnUse" x="4" y="23" width="56" height="56">
<mask id="mask8_64_217" style="mask-type:luminance" maskUnits="userSpaceOnUse" x="4" y="23" width="56" height="56">
<mask id="mask9_64_217" style="mask-type:luminance" maskUnits="userSpaceOnUse" x="4" y="23" width="56" height="56">
<mask id="mask10_64_217" style="mask-type:luminance" maskUnits="userSpaceOnUse" x="4" y="23" width="56" height="56">
<path d="M59.8834 53.161C60.9718 37.8461 49.439 24.5486 34.1241 23.4603C18.8092 22.3719 5.5117 33.9048 4.42332 49.2196C3.33494 64.5345 14.8678 77.832 30.1827 78.9204C45.4976 80.0088 58.7951 68.4759 59.8834 53.161Z" fill="white"/>
</mask>
<g mask="url(#mask10_64_217)">
<path d="M59.8834 53.161C60.9718 37.8461 49.439 24.5486 34.1241 23.4603C18.8092 22.3719 5.5117 33.9048 4.42332 49.2196C3.33494 64.5345 14.8678 77.832 30.1827 78.9204C45.4976 80.0088 58.7951 68.4759 59.8834 53.161Z" fill="white"/>
</g>
</mask>
<g mask="url(#mask9_64_217)">
<path d="M59.8834 53.161C60.9718 37.8461 49.439 24.5486 34.1241 23.4603C18.8092 22.3719 5.5117 33.9048 4.42332 49.2196C3.33494 64.5345 14.8678 77.832 30.1827 78.9204C45.4976 80.0088 58.7951 68.4759 59.8834 53.161Z" fill="white"/>
</g>
</mask>
<g mask="url(#mask8_64_217)">
<path d="M59.8834 53.161C60.9718 37.8461 49.439 24.5486 34.1241 23.4603C18.8092 22.3719 5.5117 33.9048 4.42332 49.2196C3.33494 64.5345 14.8678 77.832 30.1827 78.9204C45.4976 80.0088 58.7951 68.4759 59.8834 53.161Z" fill="white"/>
</g>
</mask>
<g mask="url(#mask7_64_217)">
<path d="M4.40039 78.9001H30.8004L43.0004 66.7001V57.5001H21.2004L4.40039 28.6001C4.40039 28.6001 4.40039 78.9001 4.40039 78.9001ZM4.40039 78.9001H30.8004L43.0004 66.7001V57.5001H21.2004L4.40039 28.6001C4.40039 28.6001 4.40039 78.9001 4.40039 78.9001Z" fill="#0F9D58"/>
</g>
<mask id="mask11_64_217" style="mask-type:luminance" maskUnits="userSpaceOnUse" x="4" y="23" width="56" height="56">
<mask id="mask12_64_217" style="mask-type:luminance" maskUnits="userSpaceOnUse" x="4" y="23" width="56" height="56">
<mask id="mask13_64_217" style="mask-type:luminance" maskUnits="userSpaceOnUse" x="4" y="23" width="56" height="56">
<mask id="mask14_64_217" style="mask-type:luminance" maskUnits="userSpaceOnUse" x="4" y="23" width="56" height="56">
<path d="M59.8834 53.161C60.9718 37.8461 49.439 24.5486 34.1241 23.4603C18.8092 22.3719 5.5117 33.9048 4.42332 49.2196C3.33494 64.5345 14.8678 77.832 30.1827 78.9204C45.4976 80.0088 58.7951 68.4759 59.8834 53.161Z" fill="white"/>
</mask>
<g mask="url(#mask14_64_217)">
<path d="M59.8834 53.161C60.9718 37.8461 49.439 24.5486 34.1241 23.4603C18.8092 22.3719 5.5117 33.9048 4.42332 49.2196C3.33494 64.5345 14.8678 77.832 30.1827 78.9204C45.4976 80.0088 58.7951 68.4759 59.8834 53.161Z" fill="white"/>
</g>
</mask>
<g mask="url(#mask13_64_217)">
<path d="M59.8834 53.161C60.9718 37.8461 49.439 24.5486 34.1241 23.4603C18.8092 22.3719 5.5117 33.9048 4.42332 49.2196C3.33494 64.5345 14.8678 77.832 30.1827 78.9204C45.4976 80.0088 58.7951 68.4759 59.8834 53.161Z" fill="white"/>
</g>
</mask>
<g mask="url(#mask12_64_217)">
<path d="M59.8834 53.161C60.9718 37.8461 49.439 24.5486 34.1241 23.4603C18.8092 22.3719 5.5117 33.9048 4.42332 49.2196C3.33494 64.5345 14.8678 77.832 30.1827 78.9204C45.4976 80.0088 58.7951 68.4759 59.8834 53.161Z" fill="white"/>
</g>
</mask>
<g mask="url(#mask11_64_217)">
<path d="M32.1002 38.6L43.0002 57.5L30.7002 78.9H59.8002V38.5H32.1002V38.6ZM32.1002 38.6L43.0002 57.5L30.7002 78.9H59.8002V38.5H32.1002V38.6Z" fill="#FFCE41"/>
</g>
<mask id="mask15_64_217" style="mask-type:luminance" maskUnits="userSpaceOnUse" x="4" y="23" width="56" height="56">
<mask id="mask16_64_217" style="mask-type:luminance" maskUnits="userSpaceOnUse" x="4" y="23" width="56" height="56">
<mask id="mask17_64_217" style="mask-type:luminance" maskUnits="userSpaceOnUse" x="4" y="23" width="56" height="56">
<mask id="mask18_64_217" style="mask-type:luminance" maskUnits="userSpaceOnUse" x="4" y="23" width="56" height="56">
<path d="M59.8834 53.161C60.9718 37.8461 49.439 24.5486 34.1241 23.4603C18.8092 22.3719 5.5117 33.9048 4.42332 49.2196C3.33494 64.5345 14.8678 77.832 30.1827 78.9204C45.4976 80.0088 58.7951 68.4759 59.8834 53.161Z" fill="white"/>
</mask>
<g mask="url(#mask18_64_217)">
<path d="M59.8834 53.161C60.9718 37.8461 49.439 24.5486 34.1241 23.4603C18.8092 22.3719 5.5117 33.9048 4.42332 49.2196C3.33494 64.5345 14.8678 77.832 30.1827 78.9204C45.4976 80.0088 58.7951 68.4759 59.8834 53.161Z" fill="white"/>
</g>
</mask>
<g mask="url(#mask17_64_217)">
<path d="M59.8834 53.161C60.9718 37.8461 49.439 24.5486 34.1241 23.4603C18.8092 22.3719 5.5117 33.9048 4.42332 49.2196C3.33494 64.5345 14.8678 77.832 30.1827 78.9204C45.4976 80.0088 58.7951 68.4759 59.8834 53.161Z" fill="white"/>
</g>
</mask>
<g mask="url(#mask16_64_217)">
<path d="M59.8834 53.161C60.9718 37.8461 49.439 24.5486 34.1241 23.4603C18.8092 22.3719 5.5117 33.9048 4.42332 49.2196C3.33494 64.5345 14.8678 77.832 30.1827 78.9204C45.4976 80.0088 58.7951 68.4759 59.8834 53.161Z" fill="white"/>
</g>
</mask>
<g mask="url(#mask15_64_217)">
<path d="M32.1005 63.8001C39.0593 63.8001 44.7005 58.1589 44.7005 51.2001C44.7005 44.2413 39.0593 38.6001 32.1005 38.6001C25.1417 38.6001 19.5005 44.2413 19.5005 51.2001C19.5005 58.1589 25.1417 63.8001 32.1005 63.8001Z" fill="#F2F2F2"/>
<path d="M32.1005 61.3001C37.6786 61.3001 42.2005 56.7782 42.2005 51.2001C42.2005 45.622 37.6786 41.1001 32.1005 41.1001C26.5224 41.1001 22.0005 45.622 22.0005 51.2001C22.0005 56.7782 26.5224 61.3001 32.1005 61.3001Z" fill="#557EBF"/>
</g>
<mask id="mask19_64_217" style="mask-type:luminance" maskUnits="userSpaceOnUse" x="0" y="0" width="65" height="56">
<path d="M0 0V51.1C0 53.5 2 55.5 4.4 55.5H59.9C62.3 55.5 64.3 53.5 64.3 51.1V0H0ZM39.4 11.7H24.8C23.2 11.7 21.9 10.4 21.9 8.8C21.9 7.2 23.2 5.9 24.8 5.9H39.4C41 5.9 42.3 7.2 42.3 8.8C42.3 10.4 41 11.7 39.4 11.7Z" fill="white"/>
</mask>
<g mask="url(#mask19_64_217)">
<path d="M0 0H64.3V27.8H0V0Z" fill="#212121" fill-opacity="0.05"/>
</g>
<path d="M0 27.4004H64.3V27.8004H0V27.4004Z" fill="#212121" fill-opacity="0.02"/>
<path d="M0 27.8003H64.3V28.2003H0V27.8003Z" fill="white" fill-opacity="0.05"/>
<path d="M39.4 11.7H24.8C23.3 11.7 22 10.5 21.9 9C21.9 9.1 21.9 9.1 21.9 9.2C21.9 10.8 23.2 12.1 24.8 12.1H39.4C41 12.1 42.3 10.8 42.3 9.2C42.3 9.1 42.3 9.1 42.3 9C42.2 10.5 41 11.7 39.4 11.7ZM0 0V0.400002H64.3V0H0Z" fill="#212121" fill-opacity="0.02"/>
<path d="M24.8 5.9H39.4C40.9 5.9 42.2 7.10001 42.3 8.60001C42.3 8.50001 42.3 8.5 42.3 8.4C42.3 6.8 41 5.5 39.4 5.5H24.8C23.2 5.5 21.9 6.8 21.9 8.4C21.9 8.5 21.9 8.50001 21.9 8.60001C22 7.10001 23.3 5.9 24.8 5.9ZM59.9 55.2H4.4C2 55.2 0 53.2 0 50.8V51.2C0 53.6 2 55.6 4.4 55.6H59.9C62.3 55.6 64.3 53.6 64.3 51.2V50.8C64.3 53.2 62.3 55.2 59.9 55.2Z" fill="#231F20" fill-opacity="0.1"/>
<path d="M0 0V51.1C0 53.5 2 55.5 4.4 55.5H59.9C62.3 55.5 64.3 53.5 64.3 51.1V0H0ZM39.4 11.7H24.8C23.2 11.7 21.9 10.4 21.9 8.8C21.9 7.2 23.2 5.9 24.8 5.9H39.4C41 5.9 42.3 7.2 42.3 8.8C42.3 10.4 41 11.7 39.4 11.7Z" fill="url(#paint0_radial_64_217)"/>
</g>
<defs>
<radialGradient id="paint0_radial_64_217" cx="0" cy="0" r="1" gradientUnits="userSpaceOnUse" gradientTransform="translate(-0.19363 -0.191727) scale(83.109 83.109)">
<stop stop-color="white" stop-opacity="0.1"/>
<stop offset="1" stop-color="white" stop-opacity="0"/>
</radialGradient>
</defs>
</svg>
